#!OML:ASF F:\VICON\USERDATA\INSTALL\rory3\rory3.ASF
:FULLY-SPECIFIED
:DEGREES
443
root -3.76775 17.7172 10.1781 358.46 -5.36623 358.922
lowerback 12.3809 1.42973 1.01574
upperback 0.72092 2.09292 0.858487
thorax -6.18366 1.00751 -0.035575
lowerneck -17.8145 -7.34113 -12.8194
upperneck 30.0838 -9.93155 9.9644
head 14.5515 -4.48029 4.4512
rclavicle -2.41026e-015 -2.98177e-015
rhumerus -34.5727 -14.0203 -75.1108
rradius 38.5663
rwrist -0.467075
rhand -20.901 7.55818
rfingers 7.12502
rthumb 5.46997 -22.3512
lclavicle -2.41026e-015 -2.98177e-015
lhumerus -35.0929 13.2668 79.6528
lradius 34.9398
lwrist -7.39527
lhand -19.1355 24.2881
lfingers 7.12502
lthumb 7.17433 54.1465
rfemur -12.8977 -0.475623 20.6535
rtibia 33.9031
rfoot -17.302 4.44979
rtoes -0.957967
lfemur -13.1429 1.35849 -21.9962
ltibia 36.2357
lfoot -20.5367 -13.9536
ltoes -16.7599
444
root -3.82822 17.6958 10.1982 358.536 -5.23515 358.943
lowerback 12.1775 1.3339 0.875516
upperback 0.735638 1.94921 0.953359
thorax -6.06313 0.943344 0.173305
lowerneck -17.9085 -7.27825 -12.7814
upperneck 30.1301 -9.82843 9.92112
head 14.5715 -4.4347 4.44693
rclavicle 9.34288e-015 -1.21259e-014
rhumerus -34.5506 -14.1429 -74.8516
rradius 38.5004
rwrist -0.726738
rhand -21.0275 7.62858
rfingers 7.12502
rthumb 5.34775 -22.2839
lclavicle 9.34288e-015 -1.21259e-014
lhumerus -34.9292 12.9783 79.9446
lradius 34.8672
lwrist -7.44655
lhand -19.2872 24.043
lfingers 7.12502
lthumb 7.02791 53.9063
rfemur -13.0726 -1.10926 20.7708
rtibia 34.3493
rfoot -17.8501 4.91246
rtoes -1.19452
lfemur -13.1943 1.32081 -22.4347
ltibia 35.5102
lfoot -20.5304 -13.8807
ltoes -16.4312
445
root -3.89276 17.6753 10.2189 358.599 -5.13447 358.922
lowerback 11.9891 1.28541 0.711754
upperback 0.740429 1.86666 1.05961
thorax -5.96172 0.909483 0.395627
lowerneck -17.8785 -7.26036 -12.7133
upperneck 30.1053 -9.78673 9.80712
head 14.5347 -4.42441 4.39467
rclavicle -2.79292e-014 -8.94531e-015
rhumerus -34.7131 -14.4202 -74.5639
rradius 38.7298
rwrist -0.882589
rhand -21.04 7.37067
rfingers 7.12502
rthumb 5.33574 -22.5422
lclavicle -2.79292e-014 -8.94531e-015
lhumerus -34.7681 12.52 80.2855
lradius 34.8629
lwrist -7.30643
lhand -19.3431 24.2282
lfingers 7.12502
lthumb 6.97395 54.0934
rfemur -13.2723 -1.52003 20.9806
rtibia 34.8028
rfoot -18.303 5.18068
rtoes -1.60162
lfemur -13.2215 1.29686 -22.7252
ltibia 34.7818
lfoot -20.4235 -13.9104
ltoes -15.7698
446
root -3.96052 17.6575 10.2405 358.631 -5.15519 358.771
lowerback 11.9645 1.29502 0.536339
upperback 0.663408 1.86876 1.24856
thorax -6.04167 0.917634 0.692114
lowerneck -17.7643 -7.19994 -12.6437
upperneck 30.0881 -9.68295 9.66277
head 14.4711 -4.39392 4.34371
rclavicle 3.08116e-015 -3.97569e-015
rhumerus -35.1386 -14.8554 -74.1342
rradius 39.1918
rwrist -0.71205
rhand -20.9537 6.67879
rfingers 7.12502
rthumb 5.41901 -23.2319
lclavicle 3.08116e-015 -3.97569e-015
lhumerus -34.8597 11.9485 80.656
lradius 35.1194
lwrist -7.05553
lhand -19.0019 24.7177
lfingers 7.12502
lthumb 7.30327 54.5717
rfemur -13.4251 -1.60563 21.3633
rtibia 35.2208
rfoot -18.7074 5.29918
rtoes -1.44454
lfemur -13.164 1.30533 -22.7972
ltibia 34.0882
lfoot -20.3571 -13.6906
ltoes -15.3273
447
root -4.02596 17.6422 10.26 358.665 -5.0822 358.719
lowerback 11.9378 1.23869 0.341846
upperback 0.596092 1.77412 1.33436
thorax -6.10568 0.877875 0.907838
lowerneck -17.7414 -7.10298 -12.4377
upperneck 30.1084 -9.56056 9.51147
head 14.4324 -4.33821 4.26989
rclavicle -6.16232e-015 1.98785e-016
rhumerus -35.4193 -15.2139 -73.8673
rradius 39.3787
rwrist -0.424559
rhand -20.8728 6.03707
rfingers 7.12502
rthumb 5.49717 -23.8716
lclavicle -6.16232e-015 1.98785e-016
lhumerus -34.9577 11.3712 80.8815
lradius 35.4239
lwrist -6.73496
lhand -18.5509 25.376
lfingers 7.12502
lthumb 7.73861 55.2144
rfemur -13.5441 -1.74999 21.6168
rtibia 35.5826
rfoot -19.0532 5.51365
rtoes -1.30635
lfemur -13.1087 1.18835 -22.9425
ltibia 33.4857
lfoot -20.1695 -13.257
ltoes -13.9428
448
root -4.09202 17.6276 10.2756 358.719 -4.85223 358.67
lowerback 11.865 1.12589 0.109616
upperback 0.584117 1.59936 1.4402
thorax -6.08443 0.800395 1.18103
lowerneck -17.9076 -7.0546 -12.3403
upperneck 30.201 -9.50739 9.50225
head 14.4955 -4.30102 4.26012
rclavicle 6.13748e-015 9.93923e-016
rhumerus -35.4311 -15.3468 -73.6403
rradius 39.2114
rwrist -0.365379
rhand -20.9166 6.08851
rfingers 7.12502
rthumb 5.45488 -23.8213
lclavicle 6.13748e-015 9.93923e-016
lhumerus -34.888 10.9629 81.0968
lradius 35.5356
lwrist -6.51725
lhand -18.4714 25.6669
lfingers 7.12502
lthumb 7.81541 55.5025
rfemur -13.6471 -1.99788 21.8695
rtibia 35.8787
rfoot -19.3489 5.72456
rtoes -1.04539
lfemur -13.1062 1.08518 -23.0357
ltibia 33.0138
lfoot -19.8527 -12.6169
ltoes -12.6001
